# Blender v2.76 (sub 0) OBJ File: 'key.blend'
# www.blender.org
mtllib key.mtl
o Mesh1_Model
v 1.590079 0.869243 0.850354
v 1.539869 0.811419 0.850376
v 1.442324 0.867139 0.850355
v 1.442324 1.077194 0.850273
v 1.292333 0.928788 0.850331
v 1.191072 0.928788 0.850331
v 1.051576 1.092110 0.850267
v 1.051576 1.263371 0.850201
v 1.175005 1.423888 0.850138
v 1.292333 1.423888 0.850138
v 1.435294 1.344157 0.850169
v 1.435294 2.685867 0.849648
v 1.358060 2.685867 0.849648
v 1.435294 2.788782 0.849608
v 1.317966 2.788782 0.849608
v 1.223849 2.885991 0.849570
v 1.223849 3.037382 0.849511
v 1.149451 3.118088 0.849480
v 1.149451 3.238248 0.849433
v 1.260856 3.318333 0.849402
v 1.360687 3.462109 0.849346
v 1.455306 3.462109 0.849346
v 1.455306 3.507527 0.849328
v 1.455306 3.552944 0.849311
v 1.532894 3.552944 0.849311
v 1.606697 3.552944 0.849311
v 1.606697 3.507527 0.849328
v 1.606697 3.462109 0.849346
v 1.717402 3.462109 0.849346
v 1.748825 3.386035 0.849375
v 1.783139 3.302952 0.849408
v 1.869418 3.257626 0.849425
v 1.922560 3.128065 0.849476
v 1.833113 3.036110 0.849511
v 1.833113 2.893242 0.849567
v 1.751680 2.810098 0.849599
v 1.606912 2.810098 0.849599
v 1.670506 2.682158 0.849649
v 1.590079 2.682158 0.849649
v 1.590079 0.869353 1.133864
v 1.539869 0.811529 1.133887
v 1.590079 2.682268 1.133159
v 1.670506 2.682268 1.133159
v 1.606912 2.810208 1.133110
v 1.751680 2.810208 1.133110
v 1.833113 2.893353 1.133077
v 1.833113 3.036220 1.133022
v 1.922560 3.128175 1.132986
v 1.869418 3.257736 1.132936
v 1.783139 3.303062 1.132918
v 1.748825 3.386146 1.132886
v 1.717402 3.462219 1.132856
v 1.606697 3.462219 1.132856
v 1.606697 3.507637 1.132838
v 1.606697 3.553054 1.132821
v 1.532894 3.553054 1.132821
v 1.455306 3.553054 1.132821
v 1.455306 3.507637 1.132838
v 1.455306 3.462219 1.132856
v 1.360687 3.462219 1.132856
v 1.260856 3.318444 1.132912
v 1.149451 3.238358 1.132943
v 1.149451 3.118198 1.132990
v 1.223849 3.037492 1.133021
v 1.223849 2.886101 1.133080
v 1.317966 2.788893 1.133118
v 1.435294 2.788893 1.133118
v 1.358060 2.685977 1.133158
v 1.435294 2.685977 1.133158
v 1.435294 1.344267 1.133680
v 1.292333 1.423999 1.133649
v 1.175005 1.423999 1.133649
v 1.051576 1.263482 1.133711
v 1.051576 1.092221 1.133777
v 1.191072 0.928898 1.133841
v 1.292333 0.928898 1.133841
v 1.442324 1.077304 1.133783
v 1.442324 0.867249 1.133865
vt -55.503899 28.716600
vt -52.187302 24.897100
vt -45.744099 28.577600
vt -45.744099 42.452599
vt -35.836601 32.649799
vt -29.147900 32.649799
vt -19.933599 43.437901
vt -19.933599 54.750401
vt -28.086599 65.353203
vt -35.836601 65.353203
vt -45.279701 60.086601
vt -45.279701 148.712006
vt -40.178101 148.712006
vt -45.279701 155.509995
vt -37.529701 155.509995
vt -31.312901 161.931000
vt -31.312901 171.931000
vt -26.398600 177.261993
vt -26.398600 185.199005
vt -33.757401 190.488998
vt -40.351601 199.985992
vt -46.601601 199.985992
vt -46.601601 202.985992
vt -46.601601 205.985992
vt -51.726601 205.985992
vt -56.601601 205.985992
vt -56.601601 202.985992
vt -56.601601 199.985992
vt -63.914101 199.985992
vt -65.989700 194.960999
vt -68.256302 189.473007
vt -73.955399 186.479004
vt -77.465599 177.921005
vt -71.557297 171.847000
vt -71.557297 162.410004
vt -66.178299 156.917999
vt -56.615799 156.917999
vt -60.816399 148.466995
vt -55.503899 148.466995
vt 53.015301 0.000000
vt 58.073799 0.000000
vt 58.073799 34.500000
vt 53.015301 34.500000
vt 28.716600 0.000000
vt 148.466995 0.000000
vt 148.466995 34.500000
vt 28.716600 34.500000
vt 55.503899 -0.000000
vt 60.816399 -0.000000
vt 60.816399 34.500000
vt 55.503899 34.500000
vt 105.880997 -0.000000
vt 115.319000 -0.000000
vt 115.319000 34.500000
vt 105.880997 34.500000
vt 56.615799 -0.000000
vt 66.178299 -0.000000
vt 66.178299 34.500000
vt 56.615799 34.500000
vt 158.412994 -0.000000
vt 166.100006 -0.000000
vt 166.100006 34.500000
vt 158.412994 34.500000
vt 162.410004 0.000000
vt 171.847000 0.000000
vt 171.847000 34.500000
vt 162.410004 34.500000
vt 173.074997 -0.000000
vt 181.548996 -0.000000
vt 181.548996 34.500000
vt 173.074997 34.500000
vt 135.216003 -0.000000
vt 144.466003 -0.000000
vt 144.466003 34.500000
vt 135.216003 34.500000
vt 21.243299 -0.000000
vt 27.680799 -0.000000
vt 27.680799 34.500000
vt 21.243299 34.500000
vt 149.069000 -0.000000
vt 155.005997 0.000000
vt 155.005997 34.500000
vt 149.069000 34.500000
vt 160.444000 0.000000
vt 160.444000 34.500000
vt -63.914101 0.000000
vt -56.601601 0.000000
vt -56.601601 34.500000
vt -63.914101 34.500000
vt 199.985992 0.000000
vt 202.985992 0.000000
vt 202.985992 34.500000
vt 199.985992 34.500000
vt 205.985992 0.000000
vt 205.985992 34.500000
vt -51.726601 0.000000
vt -51.726601 34.500000
vt -46.601601 0.000000
vt -46.601601 34.500000
vt -205.985992 0.000000
vt -202.985992 0.000000
vt -202.985992 34.500000
vt -205.985992 34.500000
vt -199.985992 0.000000
vt -199.985992 34.500000
vt -40.351601 0.000000
vt -40.351601 34.500000
vt -187.287994 0.000000
vt -175.725006 -0.000000
vt -175.725006 34.500000
vt -187.287994 34.500000
vt -138.589996 -0.000000
vt -129.528000 -0.000000
vt -129.528000 34.500000
vt -138.589996 34.500000
vt -185.199005 0.000000
vt -177.261993 0.000000
vt -177.261993 34.500000
vt -185.199005 34.500000
vt -112.431000 -0.000000
vt -105.181000 -0.000000
vt -105.181000 34.500000
vt -112.431000 34.500000
vt -171.931000 0.000000
vt -161.931000 0.000000
vt -161.931000 34.500000
vt -171.931000 34.500000
vt -94.557503 -0.000000
vt -85.620003 -0.000000
vt -85.620003 34.500000
vt -94.557503 34.500000
vt 37.529701 -0.000000
vt 45.279701 -0.000000
vt 45.279701 34.500000
vt 37.529701 34.500000
vt -151.563004 -0.000000
vt -143.063004 -0.000000
vt -143.063004 34.500000
vt -151.563004 34.500000
vt 40.178101 -0.000000
vt 40.178101 34.500000
vt -148.712006 0.000000
vt -60.086601 0.000000
vt -60.086601 34.500000
vt -148.712006 34.500000
vt -10.277800 -0.000000
vt 0.534650 -0.000000
vt 0.534650 34.500000
vt -10.277800 34.500000
vt -35.836601 -0.000000
vt -28.086599 -0.000000
vt -28.086599 34.500000
vt -35.836601 34.500000
vt -68.928398 -0.000000
vt -55.553398 -0.000000
vt -55.553398 34.500000
vt -68.928398 34.500000
vt -54.750401 0.000000
vt -43.437901 0.000000
vt -43.437901 34.500000
vt -54.750401 34.500000
vt -20.083700 -0.000000
vt -5.896190 -0.000000
vt -5.896190 34.500000
vt -20.083700 34.500000
vt 29.147900 -0.000000
vt 35.836601 -0.000000
vt 35.836601 34.500000
vt 29.147900 34.500000
vt 48.438499 0.000000
vt 62.375999 0.000000
vt 62.375999 34.500000
vt 48.438499 34.500000
vt -42.452599 0.000000
vt -28.577600 0.000000
vt -28.577600 34.500000
vt -42.452599 34.500000
vt 25.545500 -0.000000
vt 32.965801 -0.000000
vt 32.965801 34.500000
vt 25.545500 34.500000
vt 52.187302 24.897100
vt 55.503899 28.716600
vt 55.503899 148.466995
vt 60.816399 148.466995
vt 56.615799 156.917999
vt 66.178299 156.917999
vt 71.557297 162.410004
vt 71.557297 171.847000
vt 77.465599 177.921005
vt 73.955399 186.479004
vt 68.256302 189.473007
vt 65.989700 194.960999
vt 63.914101 199.985992
vt 56.601601 199.985992
vt 56.601601 202.985992
vt 56.601601 205.985992
vt 51.726601 205.985992
vt 46.601601 205.985992
vt 46.601601 202.985992
vt 46.601601 199.985992
vt 40.351601 199.985992
vt 33.757401 190.488998
vt 26.398600 185.199005
vt 26.398600 177.261993
vt 31.312901 171.931000
vt 31.312901 161.931000
vt 37.529701 155.509995
vt 45.279701 155.509995
vt 40.178101 148.712006
vt 45.279701 148.712006
vt 45.279701 60.086601
vt 35.836601 65.353203
vt 28.086599 65.353203
vt 19.933599 54.750401
vt 19.933599 43.437901
vt 29.147900 32.649799
vt 35.836601 32.649799
vt 45.744099 42.452599
vt 45.744099 28.577600
vn 0.000000 -0.000400 -1.000000
vn 0.755100 -0.655600 0.000300
vn 1.000000 -0.000000 0.000000
vn 0.000000 -1.000000 0.000400
vn 0.895500 0.445100 -0.000200
vn 0.714400 -0.699700 0.000300
vn 0.716800 -0.697300 0.000300
vn 0.925200 0.379500 -0.000100
vn 0.465100 0.885300 -0.000300
vn 0.924300 0.381700 -0.000100
vn 0.924300 0.381800 -0.000100
vn 0.000000 1.000000 -0.000400
vn -1.000000 -0.000000 0.000000
vn -0.821400 0.570300 -0.000200
vn -0.583700 0.812000 -0.000300
vn -0.735300 -0.677800 0.000300
vn -0.718400 -0.695600 0.000300
vn -0.799800 0.600200 -0.000200
vn 0.487100 0.873400 -0.000300
vn -0.792700 0.609600 -0.000200
vn -0.760400 -0.649500 0.000300
vn 0.703300 -0.710900 0.000300
vn -0.496000 -0.868300 0.000300
vn -0.000000 0.000400 1.000000
usemtl FrontColor
s 1
f 1/1/1 2/2/1 3/3/1 4/4/1 5/5/1 6/6/1 7/7/1 8/8/1 9/9/1 10/10/1 11/11/1 12/12/1 13/13/1 14/14/1 15/15/1 16/16/1 17/17/1 18/18/1 19/19/1 20/20/1 21/21/1 22/22/1 23/23/1 24/24/1 25/25/1 26/26/1 27/27/1 28/28/1 29/29/1 30/30/1 31/31/1 32/32/1 33/33/1 34/34/1 35/35/1 36/36/1 37/37/1 38/38/1 39/39/1
f 2/40/2 1/41/2 40/42/2 41/43/2
f 1/44/3 39/45/3 42/46/3 40/47/3
f 39/48/4 38/49/4 43/50/4 42/51/4
f 38/52/5 37/53/5 44/54/5 43/55/5
f 37/56/4 36/57/4 45/58/4 44/59/4
f 36/60/6 35/61/6 46/62/6 45/63/6
f 35/64/3 34/65/3 47/66/3 46/67/3
f 34/68/7 33/69/7 48/70/7 47/71/7
f 33/72/8 32/73/8 49/74/8 48/75/8
f 32/76/9 31/77/9 50/78/9 49/79/9
f 31/80/10 30/81/11 51/82/11 50/83/10
f 30/81/11 29/84/11 52/85/11 51/82/11
f 29/86/12 28/87/12 53/88/12 52/89/12
f 28/90/3 27/91/3 54/92/3 53/93/3
f 27/91/3 26/94/3 55/95/3 54/92/3
f 26/87/12 25/96/12 56/97/12 55/88/12
f 25/96/12 24/98/12 57/99/12 56/97/12
f 24/100/13 23/101/13 58/102/13 57/103/13
f 23/101/13 22/104/13 59/105/13 58/102/13
f 22/98/12 21/106/12 60/107/12 59/99/12
f 21/108/14 20/109/14 61/110/14 60/111/14
f 20/112/15 19/113/15 62/114/15 61/115/15
f 19/116/13 18/117/13 63/118/13 62/119/13
f 18/120/16 17/121/16 64/122/16 63/123/16
f 17/124/13 16/125/13 65/126/13 64/127/13
f 16/128/17 15/129/17 66/130/17 65/131/17
f 15/132/4 14/133/4 67/134/4 66/135/4
f 14/136/18 13/137/18 68/138/18 67/139/18
f 13/140/4 12/133/4 69/134/4 68/141/4
f 12/142/13 11/143/13 70/144/13 69/145/13
f 11/146/19 10/147/19 71/148/19 70/149/19
f 10/150/12 9/151/12 72/152/12 71/153/12
f 9/154/20 8/155/20 73/156/20 72/157/20
f 8/158/13 7/159/13 74/160/13 73/161/13
f 7/162/21 6/163/21 75/164/21 74/165/21
f 6/166/4 5/167/4 76/168/4 75/169/4
f 5/170/22 4/171/22 77/172/22 76/173/22
f 4/174/13 3/175/13 78/176/13 77/177/13
f 3/178/23 2/179/23 41/180/23 78/181/23
f 41/182/24 40/183/24 42/184/24 43/185/24 44/186/24 45/187/24 46/188/24 47/189/24 48/190/24 49/191/24 50/192/24 51/193/24 52/194/24 53/195/24 54/196/24 55/197/24 56/198/24 57/199/24 58/200/24 59/201/24 60/202/24 61/203/24 62/204/24 63/205/24 64/206/24 65/207/24 66/208/24 67/209/24 68/210/24 69/211/24 70/212/24 71/213/24 72/214/24 73/215/24 74/216/24 75/217/24 76/218/24 77/219/24 78/220/24
